<svg width="140" height="18" viewBox="0 0 140 18" fill="none" xmlns="http://www.w3.org/2000/svg">
<g clip-path="url(#clip0_1_13)">
<path d="M11.0788 1.37178L8.55556 4.5L4.28404 1.97819C3.56664 1.55465 2.71713 1.67648 2.09666 2.29188L1.11425 3.26627C0.828425 3.54977 0.8631 4.10126 1.18091 4.32642L5.96296 7.71429L4.01852 10.125L2.52762 9.84063C1.53939 9.65214 0.648148 10.6001 0.648148 11.8397C0.648148 12.3341 0.936429 12.756 1.32975 12.8373L3.75926 13.3393L4.16418 16.3513C4.22973 16.839 4.57004 17.1964 4.96879 17.1964C5.96865 17.1964 6.73325 16.0915 6.58122 14.8662L6.35185 13.0179L8.2963 10.6071L11.0289 16.536C11.2105 16.9299 11.6554 16.973 11.884 16.6185L12.6699 15.4005C13.1663 14.6313 13.2645 13.578 12.9229 12.6887L10.8889 7.39286L13.4121 4.26464C13.7055 3.90082 13.8704 3.40737 13.8704 2.89286C13.8704 2.37834 13.7055 1.8849 13.4121 1.52108L13.2916 1.37178C12.9982 1.00796 12.6002 0.803571 12.1852 0.803571C11.7702 0.803571 11.3721 1.00796 11.0788 1.37178Z" fill="#7AF1FF"/>
<path fill-rule="evenodd" clip-rule="evenodd" d="M11.537 1.93999C11.709 1.72687 11.9421 1.60714 12.1852 1.60714C12.4283 1.60714 12.6614 1.72687 12.8333 1.93999L12.9537 2.08929C13.1257 2.30241 13.2222 2.59146 13.2222 2.89286C13.2222 3.19425 13.1257 3.48331 12.9537 3.69643L10.4306 6.82465C10.2366 7.06521 10.1857 7.43118 10.3037 7.73834L12.3377 13.0342C12.5726 13.6457 12.5051 14.3697 12.1638 14.8986L11.497 15.9319L8.85904 10.2085C8.75883 9.991 8.58255 9.84393 8.38233 9.81068C8.18211 9.77743 7.98083 9.86184 7.83799 10.0389L5.89354 12.4496C5.74755 12.6307 5.67984 12.8871 5.71124 13.14L5.9406 14.9885C6.03225 15.7269 5.57141 16.3929 4.96879 16.3929C4.88687 16.3929 4.81697 16.3194 4.8035 16.2193L4.39859 13.2072C4.35306 12.8685 4.13899 12.6031 3.86581 12.5466L1.43631 12.0446C1.35551 12.0279 1.2963 11.9413 1.2963 11.8397C1.2963 11.0926 1.83345 10.5213 2.42907 10.6349L3.91201 10.9177C3.9262 10.9206 3.94044 10.923 3.95472 10.9247C4.14177 10.9478 4.32002 10.8691 4.4514 10.7231C4.46208 10.7112 4.47245 10.6989 4.48249 10.6862L6.41078 8.29551C6.43489 8.26692 6.45743 8.23576 6.47811 8.2021C6.52455 8.12691 6.55883 8.04388 6.58095 7.95712C6.61041 7.84229 6.61794 7.72296 6.60541 7.60762C6.59301 7.49226 6.56043 7.37959 6.50764 7.27842C6.46789 7.20192 6.4172 7.133 6.35642 7.07561C6.32933 7.04988 6.30097 7.02716 6.27165 7.00746L1.66807 3.74604L2.50156 2.91937C2.92813 2.49628 3.51217 2.41251 4.00538 2.7037L8.27689 5.22552C8.52464 5.37178 8.81983 5.30877 9.01386 5.06821L11.537 1.93999ZM4.90461 7.89L0.859338 5.02411C0.144266 4.51751 0.066246 3.27666 0.709356 2.63879L1.69177 1.6644C2.50612 0.856684 3.62112 0.696783 4.5627 1.25268L8.42093 3.53049L10.6204 0.803571C11.0354 0.289053 11.5983 0 12.1852 0C12.772 0 13.3349 0.289053 13.75 0.803571L13.8704 0.952865C14.2854 1.46739 14.5185 2.16522 14.5185 2.89286C14.5185 3.62049 14.2854 4.31833 13.8704 4.83285L11.6709 7.55977L13.5081 12.3432C13.9565 13.5105 13.8275 14.8929 13.1761 15.9026L12.3901 17.1206C11.8756 17.9178 10.8748 17.8212 10.4662 16.9347L8.15456 11.9193L7.0424 13.2981L7.22183 14.7441C7.43427 16.4561 6.36589 18 4.96879 18C4.25319 18 3.64249 17.3586 3.52485 16.4835L3.19604 14.0376L1.2232 13.6299C0.517345 13.4841 0 12.7269 0 11.8397C0 10.1076 1.24532 8.78302 2.62618 9.0464L3.79245 9.26886L4.90461 7.89Z" fill="#0C098C"/>
</g>
<path d="M15.1785 2.808H25.8705V3.708H15.1785V2.808ZM19.8105 3.516H20.7585V12.948H19.8105V3.516ZM20.3265 6.36L20.9265 5.676C21.2865 5.844 21.6665 6.036 22.0665 6.252C22.4665 6.468 22.8625 6.692 23.2545 6.924C23.6465 7.148 24.0105 7.368 24.3465 7.584C24.6905 7.8 24.9825 8 25.2225 8.184L24.5865 9C24.3545 8.816 24.0705 8.612 23.7345 8.388C23.4065 8.156 23.0465 7.924 22.6545 7.692C22.2705 7.452 21.8785 7.22 21.4785 6.996C21.0785 6.764 20.6945 6.552 20.3265 6.36ZM30.8145 3.276H31.5825V8.748H30.8145V3.276ZM33.8505 2.64H37.8225V3.468H33.8505V2.64ZM33.0345 11.712H38.0745V12.552H33.0345V11.712ZM33.9585 7.044H37.7385V7.86H33.9585V7.044ZM35.3625 2.952H36.2265V12.144H35.3625V2.952ZM32.7585 1.908H33.5745V7.044C33.5745 7.652 33.5425 8.236 33.4785 8.796C33.4225 9.356 33.3065 9.888 33.1305 10.392C32.9545 10.888 32.6945 11.352 32.3505 11.784C32.0065 12.216 31.5465 12.608 30.9705 12.96C30.9305 12.896 30.8785 12.824 30.8145 12.744C30.7505 12.664 30.6785 12.584 30.5985 12.504C30.5265 12.432 30.4625 12.372 30.4065 12.324C30.9265 12.004 31.3425 11.652 31.6545 11.268C31.9665 10.876 32.2025 10.456 32.3625 10.008C32.5225 9.56 32.6265 9.088 32.6745 8.592C32.7305 8.096 32.7585 7.58 32.7585 7.044V1.908ZM27.0225 2.688H30.5865V3.528H27.0225V2.688ZM27.1545 6.552H30.3705V7.368H27.1545V6.552ZM26.8545 11.016C27.3425 10.896 27.9265 10.74 28.6065 10.548C29.2945 10.348 29.9945 10.148 30.7065 9.948L30.8265 10.74C30.1625 10.94 29.4985 11.14 28.8345 11.34C28.1785 11.54 27.5785 11.72 27.0345 11.88L26.8545 11.016ZM28.3785 3.048H29.2065V10.812L28.3785 10.992V3.048ZM43.8705 1.92H44.6865V3.72H43.8705V1.92ZM42.0465 3.264H46.3545V4.008H42.0465V3.264ZM43.4505 3.72L44.2545 3.9C44.1105 4.268 43.9585 4.656 43.7985 5.064C43.6465 5.464 43.4985 5.804 43.3545 6.084L42.7185 5.904C42.8065 5.704 42.8945 5.476 42.9825 5.22C43.0705 4.964 43.1545 4.704 43.2345 4.44C43.3225 4.168 43.3945 3.928 43.4505 3.72ZM42.0465 5.652C42.5265 5.628 43.0865 5.596 43.7265 5.556C44.3665 5.516 45.0305 5.472 45.7185 5.424V6.108C45.0865 6.172 44.4625 6.232 43.8465 6.288C43.2385 6.336 42.6825 6.38 42.1785 6.42L42.0465 5.652ZM44.7225 4.656L45.3345 4.38C45.5425 4.676 45.7465 5.004 45.9465 5.364C46.1545 5.716 46.3025 6.016 46.3905 6.264L45.7425 6.588C45.6545 6.332 45.5145 6.02 45.3225 5.652C45.1305 5.284 44.9305 4.952 44.7225 4.656ZM42.6345 7.044H45.4305V7.74H43.4025V12.948H42.6345V7.044ZM43.0665 8.652H45.4065V9.3H43.0665V8.652ZM43.0545 10.248H45.4065V10.908H43.0545V10.248ZM45.1065 7.044H45.8625V12.084C45.8625 12.276 45.8425 12.432 45.8025 12.552C45.7625 12.672 45.6745 12.764 45.5385 12.828C45.4185 12.892 45.2585 12.928 45.0585 12.936C44.8585 12.952 44.6185 12.96 44.3385 12.96C44.3305 12.856 44.3025 12.732 44.2545 12.588C44.2065 12.452 44.1585 12.332 44.1105 12.228C44.3105 12.236 44.4865 12.24 44.6385 12.24C44.7905 12.24 44.8985 12.236 44.9625 12.228C45.0585 12.22 45.1065 12.168 45.1065 12.072V7.044ZM47.1465 1.92L47.9505 2.028C47.8625 2.748 47.7465 3.452 47.6025 4.14C47.4665 4.82 47.2985 5.46 47.0985 6.06C46.9065 6.66 46.6745 7.192 46.4025 7.656C46.3625 7.6 46.3105 7.532 46.2465 7.452C46.1825 7.364 46.1145 7.28 46.0425 7.2C45.9705 7.112 45.9025 7.044 45.8385 6.996C46.0865 6.58 46.2945 6.104 46.4625 5.568C46.6305 5.024 46.7705 4.444 46.8825 3.828C46.9945 3.204 47.0825 2.568 47.1465 1.92ZM47.0865 4.212H50.0745V5.004H46.9305L47.0865 4.212ZM48.7905 4.632L49.5825 4.692C49.4625 5.956 49.2825 7.104 49.0425 8.136C48.8025 9.168 48.4705 10.088 48.0465 10.896C47.6225 11.704 47.0625 12.404 46.3665 12.996C46.3425 12.94 46.2945 12.872 46.2225 12.792C46.1585 12.712 46.0905 12.632 46.0185 12.552C45.9465 12.48 45.8825 12.42 45.8265 12.372C46.4905 11.844 47.0185 11.204 47.4105 10.452C47.8105 9.692 48.1145 8.824 48.3225 7.848C48.5385 6.872 48.6945 5.8 48.7905 4.632ZM47.3025 4.92C47.3665 5.544 47.4545 6.204 47.5665 6.9C47.6865 7.596 47.8545 8.28 48.0705 8.952C48.2865 9.624 48.5665 10.252 48.9105 10.836C49.2625 11.412 49.6945 11.896 50.2065 12.288C50.1585 12.336 50.0985 12.4 50.0265 12.48C49.9545 12.568 49.8865 12.652 49.8225 12.732C49.7585 12.82 49.7065 12.9 49.6665 12.972C49.1465 12.532 48.7105 12.008 48.3585 11.4C48.0145 10.792 47.7305 10.14 47.5065 9.444C47.2905 8.74 47.1185 8.04 46.9905 7.344C46.8705 6.64 46.7785 5.98 46.7145 5.364L47.3025 4.92ZM38.8425 8.076C39.2825 7.948 39.8065 7.784 40.4145 7.584C41.0225 7.384 41.6425 7.18 42.2745 6.972L42.4065 7.8C41.8305 8 41.2505 8.2 40.6665 8.4C40.0905 8.6 39.5625 8.784 39.0825 8.952L38.8425 8.076ZM39.0225 4.344H42.2145V5.184H39.0225V4.344ZM40.4265 1.92H41.2185V11.952C41.2185 12.184 41.1865 12.364 41.1225 12.492C41.0665 12.628 40.9665 12.732 40.8225 12.804C40.6865 12.868 40.5025 12.908 40.2705 12.924C40.0385 12.948 39.7425 12.96 39.3825 12.96C39.3585 12.856 39.3225 12.724 39.2745 12.564C39.2265 12.412 39.1745 12.28 39.1185 12.168C39.3745 12.176 39.6025 12.18 39.8025 12.18C40.0105 12.18 40.1505 12.176 40.2225 12.168C40.3585 12.168 40.4265 12.096 40.4265 11.952V1.92ZM55.8465 2.436H60.8385V6.936H55.7985V6.156H59.9625V3.216H55.8465V2.436ZM55.3425 2.436H56.2185V10.368H55.3425V2.436ZM55.8345 4.308H60.2745V5.016H55.8345V4.308ZM54.5145 10.284C55.0265 10.18 55.6425 10.044 56.3625 9.876C57.0905 9.7 57.8345 9.52 58.5945 9.336L58.6665 10.128C57.9705 10.304 57.2665 10.484 56.5545 10.668C55.8505 10.844 55.2225 11 54.6705 11.136L54.5145 10.284ZM58.4025 6.588C58.5865 7.196 58.8425 7.76 59.1705 8.28C59.4985 8.792 59.8985 9.236 60.3705 9.612C60.8425 9.98 61.3785 10.26 61.9785 10.452C61.9145 10.516 61.8465 10.592 61.7745 10.68C61.7025 10.768 61.6305 10.86 61.5585 10.956C61.4945 11.044 61.4385 11.132 61.3905 11.22C60.7585 10.972 60.1985 10.636 59.7105 10.212C59.2305 9.788 58.8185 9.284 58.4745 8.7C58.1305 8.108 57.8545 7.46 57.6465 6.756L58.4025 6.588ZM61.0785 6.864L61.7865 7.392C61.4185 7.672 61.0225 7.952 60.5985 8.232C60.1745 8.512 59.7825 8.748 59.4225 8.94L58.8585 8.484C59.0905 8.348 59.3425 8.184 59.6145 7.992C59.8945 7.8 60.1625 7.604 60.4185 7.404C60.6745 7.204 60.8945 7.024 61.0785 6.864ZM53.6625 6.66V10.908H52.7865V7.5H51.1065V6.66H53.6625ZM53.6625 10.512C53.9505 10.952 54.3505 11.28 54.8625 11.496C55.3745 11.712 55.9785 11.832 56.6745 11.856C57.0025 11.872 57.3985 11.884 57.8625 11.892C58.3345 11.892 58.8265 11.888 59.3385 11.88C59.8585 11.872 60.3585 11.86 60.8385 11.844C61.3185 11.828 61.7385 11.808 62.0985 11.784C62.0585 11.848 62.0185 11.936 61.9785 12.048C61.9385 12.16 61.9025 12.272 61.8705 12.384C61.8385 12.504 61.8145 12.608 61.7985 12.696C61.4705 12.712 61.0825 12.724 60.6345 12.732C60.1865 12.74 59.7225 12.744 59.2425 12.744C58.7625 12.752 58.2945 12.752 57.8385 12.744C57.3905 12.744 57.0025 12.74 56.6745 12.732C55.8905 12.7 55.2185 12.572 54.6585 12.348C54.1065 12.124 53.6385 11.772 53.2545 11.292C52.9665 11.548 52.6705 11.804 52.3665 12.06C52.0625 12.324 51.7465 12.592 51.4185 12.864L50.9505 11.94C51.2385 11.748 51.5465 11.528 51.8745 11.28C52.2105 11.024 52.5345 10.768 52.8465 10.512H53.6625ZM51.3465 2.82L52.0065 2.28C52.2785 2.448 52.5465 2.64 52.8105 2.856C53.0825 3.072 53.3345 3.292 53.5665 3.516C53.7985 3.74 53.9825 3.952 54.1185 4.152L53.4105 4.74C53.2825 4.54 53.1065 4.328 52.8825 4.104C52.6585 3.872 52.4105 3.644 52.1385 3.42C51.8745 3.196 51.6105 2.996 51.3465 2.82ZM71.1945 1.956H72.0465V4.536H71.1945V1.956ZM69.5745 4.116H73.8465V4.908H69.5745V4.116ZM69.8505 5.724L70.5585 5.58C70.6545 6.044 70.7385 6.528 70.8105 7.032C70.8905 7.536 70.9585 8.036 71.0145 8.532C71.0785 9.02 71.1265 9.484 71.1585 9.924C71.1905 10.364 71.2105 10.748 71.2185 11.076L70.4265 11.292C70.4265 10.948 70.4105 10.552 70.3785 10.104C70.3465 9.656 70.3065 9.184 70.2585 8.688C70.2105 8.184 70.1505 7.68 70.0785 7.176C70.0065 6.664 69.9305 6.18 69.8505 5.724ZM72.6465 5.448L73.4985 5.616C73.4425 6.072 73.3745 6.556 73.2945 7.068C73.2145 7.58 73.1305 8.092 73.0425 8.604C72.9545 9.116 72.8665 9.608 72.7785 10.08C72.6905 10.544 72.6025 10.956 72.5145 11.316L71.8065 11.136C71.8945 10.776 71.9785 10.36 72.0585 9.888C72.1465 9.416 72.2265 8.92 72.2985 8.4C72.3705 7.88 72.4385 7.368 72.5025 6.864C72.5665 6.352 72.6145 5.88 72.6465 5.448ZM69.0465 11.76H74.0505V12.564H69.0465V11.76ZM63.8265 3.192H66.1665V9.756H63.8265V8.94H65.3865V4.008H63.8265V3.192ZM63.3585 3.192H64.1145V10.788H63.3585V3.192ZM66.3825 4.368H69.3105V5.184H66.3825V4.368ZM66.2265 8.244C66.6185 8.1 67.0865 7.928 67.6305 7.728C68.1745 7.52 68.7305 7.308 69.2985 7.092L69.4425 7.836C68.9305 8.052 68.4185 8.268 67.9065 8.484C67.4025 8.7 66.9305 8.892 66.4905 9.06L66.2265 8.244ZM67.5105 1.956H68.3025V11.94C68.3025 12.172 68.2745 12.352 68.2185 12.48C68.1625 12.616 68.0625 12.72 67.9185 12.792C67.7905 12.856 67.6145 12.9 67.3905 12.924C67.1665 12.948 66.8905 12.96 66.5625 12.96C66.5465 12.856 66.5145 12.72 66.4665 12.552C66.4185 12.392 66.3665 12.252 66.3105 12.132C66.5425 12.14 66.7505 12.144 66.9345 12.144C67.1265 12.144 67.2585 12.144 67.3305 12.144C67.3945 12.144 67.4385 12.128 67.4625 12.096C67.4945 12.072 67.5105 12.024 67.5105 11.952V1.956ZM80.1225 9.096L79.8825 4.44L79.8585 3.024H81.1785L81.1545 4.44L80.9145 9.096H80.1225ZM80.5185 12.06C80.3025 12.06 80.1185 11.988 79.9665 11.844C79.8225 11.7 79.7505 11.508 79.7505 11.268C79.7505 11.028 79.8265 10.836 79.9785 10.692C80.1305 10.54 80.3105 10.464 80.5185 10.464C80.7265 10.464 80.9065 10.54 81.0585 10.692C81.2105 10.836 81.2865 11.028 81.2865 11.268C81.2865 11.508 81.2105 11.7 81.0585 11.844C80.9065 11.988 80.7265 12.06 80.5185 12.06ZM92.1225 9.096L91.8825 4.44L91.8585 3.024H93.1785L93.1545 4.44L92.9145 9.096H92.1225ZM92.5185 12.06C92.3025 12.06 92.1185 11.988 91.9665 11.844C91.8225 11.7 91.7505 11.508 91.7505 11.268C91.7505 11.028 91.8265 10.836 91.9785 10.692C92.1305 10.54 92.3105 10.464 92.5185 10.464C92.7265 10.464 92.9065 10.54 93.0585 10.692C93.2105 10.836 93.2865 11.028 93.2865 11.268C93.2865 11.508 93.2105 11.7 93.0585 11.844C92.9065 11.988 92.7265 12.06 92.5185 12.06Z" fill="#D2EA20"/>
<defs>
<clipPath id="clip0_1_13">
<rect width="14.5185" height="18" fill="white"/>
</clipPath>
</defs>
</svg>
